<svg xmlns="http://www.w3.org/2000/svg" xmlns:xlink="http://www.w3.org/1999/xlink" preserveAspectRatio="xMidYMid" width="20" height="18" viewBox="0 0 20 18">
  <defs>
    <style>

      .cls-2 {
        fill: #ffffff;
      }
    </style>
  </defs>
  <path d="M18.289,12.202 C18.289,12.202 17.605,15.849 17.605,15.849 C17.605,15.849 2.385,15.849 2.385,15.849 C2.385,15.849 1.701,12.202 1.701,12.202 C1.701,12.202 -0.000,12.202 -0.000,12.202 C-0.000,12.202 -0.000,18.000 -0.000,18.000 C-0.000,18.000 19.990,18.000 19.990,18.000 C19.990,18.000 19.990,12.202 19.990,12.202 C19.990,12.202 18.289,12.202 18.289,12.202 ZM17.857,5.723 C17.857,5.723 12.847,5.723 12.847,5.723 C12.847,5.723 12.847,3.616 12.847,3.616 C12.847,3.616 7.143,3.616 7.143,3.616 C7.143,3.616 7.143,5.723 7.143,5.723 C7.143,5.723 2.181,5.723 2.181,5.723 C2.181,5.723 9.969,13.929 9.969,13.929 C9.969,13.929 17.857,5.723 17.857,5.723 ZM12.847,-0.004 C12.847,-0.004 7.143,-0.004 7.143,-0.004 C7.143,-0.004 7.143,0.763 7.143,0.763 C7.143,0.763 12.847,0.763 12.847,0.763 C12.847,0.763 12.847,-0.004 12.847,-0.004 ZM12.847,1.428 C12.847,1.428 7.143,1.428 7.143,1.428 C7.143,1.428 7.143,2.894 7.143,2.894 C7.143,2.894 12.847,2.894 12.847,2.894 C12.847,2.894 12.847,1.428 12.847,1.428 Z" id="path-1" class="cls-2" fill-rule="evenodd"/>
</svg>
