<?xml version="1.0" encoding="utf-8"?>
<!DOCTYPE svg PUBLIC "-//W3C//DTD SVG 1.1//EN" "http://www.w3.org/Graphics/SVG/1.1/DTD/svg11.dtd">
<svg version="1.1" id="图形" xmlns="http://www.w3.org/2000/svg" xmlns:xlink="http://www.w3.org/1999/xlink" x="0px" y="0px" width="24px" height="24px" viewBox="0 0 1024 1024" enable-background="new 0 0 1024 1024" xml:space="preserve">
  <path fill="#272636" d="M754.25024-5.42592 272.28928-5.42592c-36.29312 0-65.72032 29.42464-65.72032 65.72032l0 98.5856 43.8144 0 0-98.5856c0-12.096 9.80992-21.90592 21.90848-21.90592L754.2528 38.38848c12.10112 0 21.91104 9.80992 21.91104 21.90592l0 98.5856 43.8144 0 0-98.5856C819.97312 23.99872 790.54336-5.42592 754.25024-5.42592zM720.47872 377.952c-3.968 0-33.83552 0-75.76832 0l0-186.21184c0-42.34752-34.32448-76.67456-76.67456-76.67456l-109.53472 0c-42.35008 0-76.67712 34.32704-76.67712 76.67456L381.824 377.952c-41.8176 0-72.17664 0-77.84704 0-21.32992 0-31.69024 12.19328-22.31296 21.4912 12.7872 12.6976 196.82304 188.0192 208.3072 198.74816 10.29888 9.6256 34.82624 9.78688 45.12 0 15.65952-14.912 198.7584-189.56032 207.83104-198.30016C754.25024 388.99072 739.84256 377.952 720.47872 377.952z" transform="translate(0, 812) scale(1, -1)"/>
</svg>
