<svg xmlns="http://www.w3.org/2000/svg" xmlns:xlink="http://www.w3.org/1999/xlink" preserveAspectRatio="xMidYMid" width="26" height="20" viewBox="0 0 26 20">
  <defs>
    <style>

      .cls-2 {
        fill: #ffffff;
        filter: url(#color-overlay-1);
      }
    </style>

    <filter id="color-overlay-1" filterUnits="userSpaceOnUse">
      <feFlood flood-color="#444444" flood-opacity="1"/>
      <feComposite operator="in" in2="SourceGraphic"/>
      <feBlend mode="normal" in2="SourceGraphic" result="colorOverlay"/>
    </filter>
  </defs>
  <path d="M24.861,18.536 C25.453,18.464 25.803,18.520 25.912,18.705 C26.074,18.978 26.006,19.199 25.707,19.367 C25.104,19.707 24.368,19.733 23.499,19.446 C22.630,19.159 21.997,18.679 21.599,18.007 C20.614,16.343 21.067,14.403 22.958,12.189 C22.958,12.189 23.289,11.801 23.289,11.801 C24.906,9.907 25.303,8.264 24.480,6.873 C24.111,6.250 23.182,6.040 22.155,6.077 C21.373,6.105 20.544,6.282 19.851,6.524 C20.264,7.608 20.500,8.775 20.500,10.000 C20.500,15.523 15.911,20.000 10.250,20.000 C4.589,20.000 -0.001,15.523 -0.001,10.000 C-0.001,4.477 4.589,-0.000 10.250,-0.000 C14.312,-0.000 17.811,2.310 19.470,5.653 C21.523,4.793 24.376,4.648 25.366,6.321 C26.338,7.963 26.000,9.893 24.353,12.113 C24.353,12.113 23.798,12.866 23.798,12.866 C22.912,14.047 22.378,14.956 22.198,15.593 C22.018,16.230 22.114,16.863 22.487,17.494 C22.980,18.327 23.771,18.674 24.861,18.536 ZM5.552,7.968 C4.372,7.968 3.416,8.901 3.416,10.052 C3.416,11.202 4.372,12.135 5.552,12.135 C6.731,12.135 7.687,11.202 7.687,10.052 C7.687,8.901 6.731,7.968 5.552,7.968 ZM10.250,3.385 C9.071,3.385 8.114,4.318 8.114,5.468 C8.114,6.619 9.071,7.552 10.250,7.552 C11.429,7.552 12.385,6.619 12.385,5.468 C12.385,4.318 11.429,3.385 10.250,3.385 ZM9.413,10.052 C9.413,10.512 9.796,10.885 10.268,10.885 C10.739,10.885 11.122,10.512 11.122,10.052 C11.122,9.592 10.739,9.218 10.268,9.218 C9.796,9.218 9.413,9.592 9.413,10.052 ZM10.250,12.552 C9.071,12.552 8.114,13.484 8.114,14.635 C8.114,15.786 9.071,16.718 10.250,16.718 C11.429,16.718 12.385,15.786 12.385,14.635 C12.385,13.484 11.429,12.552 10.250,12.552 ZM14.948,7.968 C13.769,7.968 12.813,8.901 12.813,10.052 C12.813,11.202 13.769,12.135 14.948,12.135 C16.128,12.135 17.084,11.202 17.084,10.052 C17.084,8.901 16.128,7.968 14.948,7.968 Z" id="path-1" class="cls-2" fill-rule="evenodd"/>
</svg>
