<?xml version="1.0" encoding="utf-8"?>
<!-- Generator: Adobe Illustrator 18.0.0, SVG Export Plug-In . SVG Version: 6.00 Build 0)  -->
<!DOCTYPE svg PUBLIC "-//W3C//DTD SVG 1.1//EN" "http://www.w3.org/Graphics/SVG/1.1/DTD/svg11.dtd">
<svg version="1.1" id="图层_1" xmlns="http://www.w3.org/2000/svg" xmlns:xlink="http://www.w3.org/1999/xlink" x="0px" y="0px"
	 viewBox="0 0 207.8 123.4" enable-background="new 0 0 207.8 123.4" xml:space="preserve">
<g>
	<path fill="#595757" d="M19.9,81.9h2.6v-3.1C21.8,79,21.1,79,20.2,79c0-0.4-0.1-0.6-0.2-0.8c2.1-0.1,3.9-0.2,5.6-0.5l0.1,0.9
		c-0.8,0-1.6,0.1-2.4,0.2v3.1h2.3v0.8h-2.3V85l0.4-0.4c0.7,0.5,1.5,1.1,2.3,1.8l-0.7,0.7c-0.4-0.4-1-1-1.9-1.7c0,0,0,0-0.1-0.1v7.5
		h-0.9v-8.3c-0.5,1.7-1.3,3.4-2.3,5c0-0.1-0.2-0.4-0.3-0.7c0-0.1-0.1-0.2-0.1-0.3c1.2-1.8,2.1-3.7,2.7-5.8h-2.5V81.9z M25.9,89.5
		c-0.2-0.2-0.4-0.5-0.6-0.7c2-1.2,3.7-2.8,4.9-4.6l0.9,0.3c0,0.1-0.2,0.2-0.3,0.4c-0.1,0.2-0.2,0.3-0.3,0.4h5v0.9
		c-1.7,3.4-5,5.6-9.9,6.7c-0.1-0.3-0.3-0.5-0.4-0.8c4.6-0.9,7.7-2.9,9.4-6h-4.7c-0.3,0.4-0.6,0.8-1,1.1c0.2,0.2,0.6,0.5,1.1,0.9
		c0.4,0.4,0.8,0.7,1,0.9l-0.6,0.6c-0.7-0.7-1.4-1.3-2.1-1.9C27.6,88.3,26.8,88.9,25.9,89.5z M26.4,81.7c0-0.1-0.1-0.2-0.3-0.3
		c-0.1-0.1-0.2-0.2-0.3-0.3c1.6-1.2,3-2.6,4-4.3l0.8,0.4c-0.3,0.4-0.6,0.8-0.9,1.2h5.4v0.9c-1.6,2.8-4.6,4.8-8.9,6.2
		c-0.1-0.3-0.3-0.5-0.5-0.8c4-1.2,6.8-3,8.5-5.4h-5.1c-0.2,0.3-0.4,0.5-0.7,0.7c0.8,0.6,1.5,1.1,2.1,1.7l-0.7,0.6
		c-0.2-0.2-0.5-0.5-0.9-0.9c-0.4-0.4-0.8-0.7-1-0.9c-0.1,0.1-0.2,0.2-0.4,0.3C27.1,81.2,26.7,81.5,26.4,81.7z"/>
	<path fill="#595757" d="M43.5,90.8c-0.1-0.2-0.3-0.5-0.4-0.7c-1,0-2.2,0.1-3.7,0.3c-0.5,0-0.9,0.1-1.1,0.1c-0.2,0-0.5,0.1-0.8,0.1
		c0,0,0,0-0.3,0.1l-0.4-0.8c0.4-0.3,0.6-0.7,0.9-1.2c0.6-1.3,1.3-2.9,2.1-4.8h-2.9v-0.9h7.6v0.9h-3.7c-0.8,2-1.7,4-2.6,5.8
		c1.5-0.1,3-0.2,4.6-0.4c-0.2-0.4-0.5-1-0.9-1.9c-0.2-0.4-0.4-0.7-0.5-0.9l0.8-0.3c0.5,0.9,1.2,2.2,2,4.1c0,0.1,0.1,0.2,0.1,0.3
		L43.5,90.8z M37.6,78.3h6.2v0.9h-6.2V78.3z M47.1,76.8H48c0,1,0,2.2,0,3.5h4.4c0,0.2,0,0.4,0,0.8c-0.1,4.6-0.2,7.5-0.3,8.6
		c-0.1,1.6-0.9,2.5-2.4,2.5c-0.7,0-1.4,0-2.1,0c-0.1-0.4-0.2-0.8-0.3-1.1c0.3,0,0.6,0,1.1,0.1c0.5,0,0.9,0,1.1,0
		c1,0,1.5-0.5,1.6-1.5c0.2-3.2,0.3-6.1,0.3-8.6h-3.5c0,0.5,0,1.1-0.1,1.7c0,4.2-1.2,7.4-3.6,9.8c-0.1-0.1-0.3-0.2-0.5-0.4
		c-0.1-0.1-0.2-0.2-0.3-0.2c2.3-2.1,3.4-5.2,3.5-9.3c0-0.2,0.1-0.4,0.1-0.8c0-0.4,0.1-0.6,0.1-0.8h-2.6v-0.9h2.6c0-0.4,0-0.9,0-1.7
		C47.1,77.9,47.1,77.3,47.1,76.8z"/>
	<path fill="#595757" d="M62.7,92.5h-0.9v-5.2h-5.2c-0.1,1.9-0.7,3.7-1.9,5.4c-0.3-0.3-0.6-0.5-0.9-0.6c0.8-1.2,1.4-2.3,1.6-3.4
		c0.3-1.1,0.4-2.7,0.4-5v-5.9h13.1v12.7c0,1.3-0.6,1.9-2.1,1.9c-0.6,0-1.3,0.1-2,0.1c0-0.3-0.1-0.6-0.2-1c0.4,0,1.1,0.1,2,0.1
		c0.9,0,1.4-0.3,1.3-1.1v-3.2h-5.2V92.5z M56.7,83.7c0,0.4,0,0.9-0.1,1.6c0,0.5,0,0.9,0,1.1h5.2V83h-5.1V83.7z M56.7,78.7v3.5h5.1
		v-3.5H56.7z M68,78.7h-5.2v3.5H68V78.7z M62.7,83v3.5H68V83H62.7z"/>
	<path fill="#595757" d="M78.1,77.2l0.8-0.4c0.5,0.7,1,1.4,1.5,2.2l-0.8,0.3h6v7h-0.9v-0.9H73.7c0,3-0.8,5.4-2.2,7.2
		c-0.1-0.1-0.4-0.3-0.8-0.6c0.8-1.2,1.4-2.3,1.7-3.4c0.3-1.1,0.4-2.7,0.4-4.8v-4.6h6.5c-0.1-0.3-0.4-0.8-0.9-1.5
		C78.3,77.5,78.2,77.3,78.1,77.2z M73.7,80.1v3.8v0.7h10.9v-4.4H73.7z"/>
	<path fill="#595757" d="M88.2,85.7c-0.1-0.2-0.2-0.4-0.4-0.8l-0.1-0.1c1.6-2.2,2.9-4.8,3.9-7.8l0.9,0.2c-0.4,1.5-1,2.8-1.6,4.1
		v11.6H90v-9.8C89.4,83.9,88.8,84.9,88.2,85.7z M92,89.9c0-0.1-0.2-0.2-0.5-0.4c-0.1-0.1-0.2-0.2-0.3-0.3c2.5-2.3,4.2-5,5.2-8.1h-4
		v-0.8h4.8v-3.5h0.9v3.5h5.1v0.8h-4.3c1.1,3.2,2.7,5.8,5,7.8c-0.2,0.1-0.4,0.4-0.7,0.7c-2.4-2.2-4.1-5-5.1-8.5h-0.1v7.3h2.8v0.9
		h-2.8v3.4h-0.9v-3.4h-2.7v-0.9h2.7v-7.3C96.3,84.7,94.5,87.6,92,89.9z"/>
	<path fill="#595757" d="M104.8,89l-0.1-0.9c1.4-0.3,2.7-0.5,3.7-0.7c0,0.3,0,0.5,0,0.8C107.3,88.5,106.1,88.8,104.8,89z
		 M106.7,79.7l-0.4,5h2.1l0.5-6.1h-3.8v-0.8h4.6l-0.5,6.9h1c0,1.2-0.1,2.9-0.2,5.4c0,0.2,0,0.4,0,0.5c0,1.2-0.8,1.8-2.2,1.8
		c-0.4,0-1,0.1-1.7,0.1c0,0,0-0.1-0.1-0.3c0-0.3,0-0.5-0.1-0.7c0.4,0,1,0.1,1.8,0.1c1,0,1.5-0.3,1.5-1.1c0-0.6,0.1-1.9,0.1-3.9
		c0-0.4,0.1-0.8,0.1-1h-4.1l0.5-5.8H106.7z M120.4,83.2c-2-1.2-3.6-2.9-4.7-4.8c-1.1,1.8-2.6,3.5-4.7,5c0,0-0.1-0.1-0.2-0.3
		c-0.2-0.3-0.3-0.4-0.4-0.5c2.4-1.6,4.1-3.6,5.2-5.9l0.9,0.2c-0.1,0.1-0.2,0.3-0.3,0.5c0,0.1-0.1,0.2-0.1,0.3c1.4,2.1,3,3.7,4.9,4.7
		c0,0,0,0.1-0.1,0.1C120.6,82.8,120.5,83.1,120.4,83.2z M110.9,91h5.8c0.6-1.5,1.3-3.5,2.1-5.9l0.9,0.3c-0.6,1.9-1.3,3.7-2.1,5.6h3
		v0.9h-9.7V91z M111.5,85.6l0.8-0.2c0.3,0.8,0.7,2.3,1.3,4.3l-0.9,0.3C112.4,88.7,112,87.2,111.5,85.6z M112.3,82.8h6.6v0.9h-6.6
		V82.8z M114.7,85.1l0.9-0.2c0,0.2,0.1,0.4,0.2,0.8c0.4,1.4,0.7,2.5,0.8,3.2l-0.8,0.2C115.5,87.7,115.1,86.4,114.7,85.1z"/>
	<path fill="#595757" d="M125.3,90.1c-0.2,0.2-0.4,0.4-0.5,0.5c-0.2,0.2-0.4,0.4-0.6,0.7l-0.7-0.5c0.2-0.2,0.3-0.5,0.3-0.9v-6.6
		h-1.9v-0.8h2.9v7.1c0.3-0.3,0.8-0.8,1.4-1.5c0.2-0.3,0.4-0.5,0.5-0.6c0.1,0.2,0.2,0.4,0.4,0.7l0.1,0.1
		C126.7,88.5,126.1,89.2,125.3,90.1z M125.5,80.5c-0.8-0.9-1.6-1.8-2.5-2.7l0.7-0.6c1.2,1.2,2,2.1,2.5,2.6L125.5,80.5z M127.2,85.1
		v-0.9h9v1c-1,1.8-2.1,3.3-3.5,4.5c1,0.7,2.7,1.3,5.2,1.9c-0.2,0.2-0.4,0.5-0.6,0.9c-2.2-0.6-4-1.4-5.3-2.3
		c-1.4,0.9-3.4,1.7-5.9,2.5c-0.1-0.3-0.3-0.6-0.5-0.9c2.6-0.8,4.5-1.5,5.6-2.3c-1.2-1-2.3-2.5-3.1-4.6H127.2z M134.4,78.6h-4.8v0.7
		c0.2,2-0.7,3.4-2.6,4.2c-0.3-0.4-0.5-0.6-0.7-0.8c1.8-0.6,2.6-1.8,2.4-3.5v-1.5h6.5v3.1c0,0.7,0.3,1,1.1,0.9h1.5l-0.1,0.9h-1.7
		c-1.1,0-1.7-0.5-1.7-1.5V78.6z M129,85.1c0.8,1.9,1.8,3.2,2.9,4c1.3-1.1,2.4-2.4,3.3-4H129z"/>
	<path fill="#595757" d="M142.1,90.7c1.4-0.9,2.5-1.6,3.1-2.1c0,0.1,0.1,0.2,0.1,0.4c0.1,0.3,0.2,0.5,0.2,0.6
		c-1.2,0.7-2.3,1.4-3.4,2.1c-0.2,0.1-0.5,0.4-0.8,0.7l-0.7-0.7c0.3-0.4,0.5-0.9,0.5-1.3v-7h-2.3v-0.9h3.3V90.7z M142.9,80.4
		c-0.9-1-1.8-1.9-2.7-2.7l0.7-0.7c0.6,0.5,1.5,1.4,2.7,2.7L142.9,80.4z M149.1,76.9h0.9v5.7h4.9v0.9H150v9.2h-0.9v-9.2h-4.9v-0.9
		h4.9V76.9z"/>
	<path fill="#595757" d="M156.9,80.4h6.5v-3.7h0.9v3.7h6.5v7.2h-0.9v-0.9h-5.6v6.1h-0.9v-6.1h-5.6v0.9h-0.9V80.4z M157.8,81.3v4.6
		h5.6v-4.6H157.8z M169.9,81.3h-5.6v4.6h5.6V81.3z"/>
	<path fill="#595757" d="M174.6,81.9l0.9,0.3c-0.6,2.2-1.2,4.4-1.7,6.5c-0.3-0.1-0.6-0.2-1-0.3C173.4,86.7,174,84.6,174.6,81.9z
		 M177.1,80h1v9.6c0,1.1,0.5,1.6,1.7,1.6h3.3c1.2,0,1.8-0.4,2-1.4c0.1-0.6,0.2-1.3,0.3-2.3c0.1,0,0.3,0.1,0.5,0.1
		c0.2,0.1,0.4,0.2,0.5,0.2c0,0.5-0.1,1.1-0.3,1.8c0,0.3-0.1,0.5-0.1,0.7c-0.3,1.2-1.2,1.8-2.8,1.8h-3.7c-1.6,0-2.4-0.8-2.4-2.3V80z
		 M182.3,81.8c-0.6-1.2-1.5-2.7-2.7-4.6l0.9-0.5c0.1,0.2,0.3,0.5,0.6,0.9c0.6,0.9,1.4,2.1,2.2,3.6L182.3,81.8z M188,87.7
		c-0.9-2-1.8-4-2.7-5.8l0.9-0.4c0.2,0.4,0.5,1,0.9,1.9c0.8,1.7,1.5,3,1.9,3.9L188,87.7z"/>
</g>
<g>
	<g>
		<path fill="#898989" d="M22.5,102l2.3-2.8h0.5v6.1h-0.5v-5.4l-2.3,2.8l-2.3-2.8v5.4h-0.5v-6.1h0.5L22.5,102z"/>
		<path fill="#898989" d="M29.7,99.1c0.9,0,1.7,0.3,2.3,0.9c0.6,0.6,0.9,1.3,0.9,2.2c0,0.9-0.3,1.6-0.9,2.2
			c-0.6,0.6-1.4,0.9-2.3,0.9c-0.9,0-1.7-0.3-2.3-0.9c-0.6-0.6-0.9-1.3-0.9-2.2c0-0.9,0.3-1.6,0.9-2.2C28,99.4,28.8,99.1,29.7,99.1z
			 M29.7,104.9c0.8,0,1.4-0.3,1.9-0.8c0.5-0.5,0.8-1.2,0.8-1.9c0-0.8-0.3-1.4-0.8-1.9c-0.5-0.5-1.2-0.8-1.9-0.8
			c-0.8,0-1.4,0.3-1.9,0.8c-0.5,0.5-0.8,1.2-0.8,1.9c0,0.8,0.3,1.4,0.8,1.9C28.3,104.6,28.9,104.9,29.7,104.9z"/>
		<path fill="#898989" d="M34.1,99.2h1.3c0.7,0,1.2,0.1,1.5,0.4c0.3,0.3,0.5,0.7,0.5,1.2c0,0.6-0.3,1-0.9,1.4
			c0.9,0.2,1.4,0.7,1.4,1.5c0,0.5-0.2,0.9-0.6,1.2c-0.4,0.3-0.9,0.4-1.5,0.4h-1.8V99.2z M34.5,99.6v2.4h0.7c1.1,0,1.7-0.4,1.7-1.2
			c0-0.8-0.6-1.2-1.7-1.2H34.5z M34.5,102.4v2.5h1.3c0.5,0,0.9-0.1,1.2-0.3s0.4-0.5,0.4-0.9c0-0.8-0.6-1.2-1.8-1.2H34.5z"/>
		<path fill="#898989" d="M39.3,99.2v6.1h-0.5v-6.1H39.3z"/>
		<path fill="#898989" d="M41.1,99.2v5.7h3v0.4h-3.5v-6.1H41.1z"/>
		<path fill="#898989" d="M48.2,99.2v0.4h-2.9v2.4h2.8v0.4h-2.8v2.5h2.9v0.4h-3.4v-6.1H48.2z"/>
		<path fill="#898989" d="M56.2,99.2h0.5v3.3c0,0.9-0.2,1.6-0.7,2.1c-0.5,0.5-1.1,0.7-1.8,0.7c-0.8,0-1.4-0.2-1.8-0.7
			c-0.5-0.5-0.7-1.2-0.7-2v-3.4H52v3.4c0,0.7,0.2,1.3,0.6,1.7c0.4,0.4,0.9,0.6,1.5,0.6c0.6,0,1.1-0.2,1.5-0.6c0.4-0.4,0.6-1,0.6-1.8
			V99.2z"/>
		<path fill="#898989" d="M60.8,99.5v0.5c-0.5-0.3-1-0.5-1.4-0.5c-0.4,0-0.7,0.1-0.9,0.3c-0.2,0.2-0.4,0.5-0.4,0.8
			c0,0.2,0.1,0.4,0.2,0.6c0.1,0.2,0.4,0.4,0.9,0.5c0.5,0.2,0.8,0.3,1,0.4c0.2,0.1,0.4,0.3,0.5,0.5c0.1,0.2,0.2,0.5,0.2,0.9
			c0,0.5-0.2,0.9-0.5,1.2c-0.3,0.3-0.8,0.5-1.3,0.5c-0.5,0-1-0.2-1.6-0.5v-0.6c0.6,0.4,1.1,0.6,1.5,0.6c0.4,0,0.7-0.1,0.9-0.4
			c0.2-0.2,0.4-0.5,0.4-0.9c0-0.3-0.1-0.5-0.2-0.7c-0.2-0.2-0.5-0.4-0.9-0.6c-0.5-0.2-0.8-0.3-1-0.4c-0.2-0.1-0.4-0.3-0.5-0.5
			c-0.1-0.2-0.2-0.5-0.2-0.8c0-0.4,0.2-0.8,0.5-1.1c0.3-0.3,0.8-0.5,1.2-0.5C59.9,99.1,60.3,99.2,60.8,99.5z"/>
		<path fill="#898989" d="M65.5,99.2v0.4h-2.9v2.4h2.8v0.4h-2.8v2.5h2.9v0.4h-3.4v-6.1H65.5z"/>
		<path fill="#898989" d="M66.5,99.2h1.6c0.7,0,1.2,0.1,1.5,0.4c0.3,0.3,0.5,0.7,0.5,1.1c0,0.7-0.4,1.2-1.2,1.5
			c0.2,0.1,0.5,0.4,0.8,0.9l1.4,2.1h-0.6l-1.1-1.7c-0.4-0.6-0.6-0.9-0.8-1c-0.2-0.1-0.5-0.2-0.9-0.2H67v2.9h-0.5V99.2z M67,99.6v2.4
			h1c0.5,0,0.9-0.1,1.2-0.3c0.3-0.2,0.4-0.5,0.4-0.9c0-0.4-0.1-0.7-0.4-0.9c-0.3-0.2-0.7-0.3-1.2-0.3H67z"/>
		<path fill="#898989" d="M77.4,99.2v0.4h-2.9v2.4h2.8v0.4h-2.8v2.5h2.9v0.4h-3.4v-6.1H77.4z"/>
		<path fill="#898989" d="M80.8,101.8l2.3-2.6h0.6l-2.6,3l2.8,3.1h-0.6l-2.5-2.8l-2.5,2.8h-0.6l2.8-3.1l-2.6-3h0.6L80.8,101.8z"/>
		<path fill="#898989" d="M84.6,99.2h1.7c0.6,0,1.1,0.1,1.5,0.4c0.3,0.3,0.5,0.7,0.5,1.2c0,0.5-0.2,0.9-0.5,1.2
			c-0.3,0.3-0.8,0.4-1.5,0.4h-1.2v2.8h-0.5V99.2z M85.1,99.6v2.5h1.1c0.5,0,0.9-0.1,1.2-0.3c0.3-0.2,0.4-0.5,0.4-0.9
			c0-0.4-0.1-0.7-0.4-0.9c-0.3-0.2-0.6-0.3-1.1-0.3H85.1z"/>
		<path fill="#898989" d="M92.5,99.2v0.4h-2.9v2.4h2.8v0.4h-2.8v2.5h2.9v0.4h-3.4v-6.1H92.5z"/>
		<path fill="#898989" d="M93.6,99.2h1.6c0.7,0,1.2,0.1,1.5,0.4c0.3,0.3,0.5,0.7,0.5,1.1c0,0.7-0.4,1.2-1.2,1.5
			c0.2,0.1,0.5,0.4,0.8,0.9l1.4,2.1h-0.6l-1.1-1.7c-0.4-0.6-0.6-0.9-0.8-1c-0.2-0.1-0.5-0.2-0.9-0.2H94v2.9h-0.5V99.2z M94,99.6v2.4
			h1c0.5,0,0.9-0.1,1.2-0.3c0.3-0.2,0.4-0.5,0.4-0.9c0-0.4-0.1-0.7-0.4-0.9c-0.3-0.2-0.7-0.3-1.2-0.3H94z"/>
		<path fill="#898989" d="M99.1,99.2v6.1h-0.5v-6.1H99.1z"/>
		<path fill="#898989" d="M103.9,99.2v0.4H101v2.4h2.8v0.4H101v2.5h2.9v0.4h-3.4v-6.1H103.9z"/>
		<path fill="#898989" d="M110.4,99.2v6.1H110l-4.6-5.3v5.3h-0.5v-6.1h0.4l4.6,5.3v-5.3H110.4z"/>
		<path fill="#898989" d="M116.9,99.6v0.5c-0.7-0.4-1.5-0.6-2.2-0.6c-0.8,0-1.4,0.3-1.9,0.8c-0.5,0.5-0.8,1.2-0.8,1.9
			c0,0.8,0.3,1.4,0.8,1.9c0.5,0.5,1.2,0.8,2,0.8c0.7,0,1.4-0.2,2.2-0.6v0.5c-0.7,0.4-1.4,0.6-2.2,0.6c-0.9,0-1.7-0.3-2.3-0.9
			s-0.9-1.3-0.9-2.2c0-0.9,0.3-1.6,0.9-2.2c0.6-0.6,1.4-0.9,2.3-0.9C115.4,99.1,116.1,99.3,116.9,99.6z"/>
		<path fill="#898989" d="M121.2,99.2v0.4h-2.9v2.4h2.8v0.4h-2.8v2.5h2.9v0.4h-3.4v-6.1H121.2z"/>
		<path fill="#898989" d="M124.7,99.2h2.1c1.1,0,1.9,0.3,2.5,0.9c0.6,0.6,0.9,1.3,0.9,2.2c0,0.9-0.3,1.6-0.8,2.2
			c-0.6,0.6-1.4,0.9-2.4,0.9h-2.2V99.2z M125.2,99.6v5.3h1.7c0.8,0,1.4-0.2,2-0.7s0.8-1.1,0.8-1.9c0-0.8-0.3-1.4-0.8-1.9
			c-0.5-0.5-1.2-0.7-2-0.7H125.2z"/>
		<path fill="#898989" d="M134.6,99.2v0.4h-2.9v2.4h2.8v0.4h-2.8v2.5h2.9v0.4h-3.4v-6.1H134.6z"/>
		<path fill="#898989" d="M138.6,99.5v0.5c-0.5-0.3-1-0.5-1.4-0.5c-0.4,0-0.7,0.1-0.9,0.3c-0.2,0.2-0.4,0.5-0.4,0.8
			c0,0.2,0.1,0.4,0.2,0.6c0.1,0.2,0.4,0.4,0.9,0.5c0.5,0.2,0.8,0.3,1,0.4c0.2,0.1,0.4,0.3,0.5,0.5c0.1,0.2,0.2,0.5,0.2,0.9
			c0,0.5-0.2,0.9-0.5,1.2c-0.3,0.3-0.8,0.5-1.3,0.5c-0.5,0-1-0.2-1.6-0.5v-0.6c0.6,0.4,1.1,0.6,1.5,0.6c0.4,0,0.7-0.1,0.9-0.4
			c0.2-0.2,0.4-0.5,0.4-0.9c0-0.3-0.1-0.5-0.2-0.7c-0.2-0.2-0.5-0.4-0.9-0.6c-0.5-0.2-0.8-0.3-1-0.4c-0.2-0.1-0.4-0.3-0.5-0.5
			c-0.1-0.2-0.2-0.5-0.2-0.8c0-0.4,0.2-0.8,0.5-1.1c0.3-0.3,0.8-0.5,1.2-0.5C137.6,99.1,138.1,99.2,138.6,99.5z"/>
		<path fill="#898989" d="M140.3,99.2v6.1h-0.5v-6.1H140.3z"/>
		<path fill="#898989" d="M146.8,99.6v0.5c-0.7-0.4-1.4-0.6-2.2-0.6c-0.8,0-1.4,0.3-1.9,0.8c-0.5,0.5-0.8,1.2-0.8,1.9
			c0,0.8,0.3,1.4,0.8,1.9c0.5,0.5,1.2,0.8,2.1,0.8c0.6,0,1.2-0.1,1.7-0.4v-1.6h-1.3v-0.4h1.8v2.3c-0.7,0.3-1.4,0.5-2.2,0.5
			c-0.9,0-1.7-0.3-2.4-0.9c-0.6-0.6-0.9-1.3-0.9-2.2c0-0.9,0.3-1.6,0.9-2.2s1.4-0.9,2.3-0.9C145.4,99.1,146.1,99.3,146.8,99.6z"/>
		<path fill="#898989" d="M153.6,99.2v6.1h-0.4l-4.6-5.3v5.3h-0.5v-6.1h0.4l4.6,5.3v-5.3H153.6z"/>
		<path fill="#898989" d="M162.6,99.6v0.5c-0.7-0.4-1.5-0.6-2.2-0.6c-0.8,0-1.4,0.3-1.9,0.8c-0.5,0.5-0.8,1.2-0.8,1.9
			c0,0.8,0.3,1.4,0.8,1.9c0.5,0.5,1.2,0.8,2,0.8c0.7,0,1.4-0.2,2.2-0.6v0.5c-0.7,0.4-1.4,0.6-2.2,0.6c-0.9,0-1.7-0.3-2.3-0.9
			c-0.6-0.6-0.9-1.3-0.9-2.2c0-0.9,0.3-1.6,0.9-2.2c0.6-0.6,1.4-0.9,2.3-0.9C161.1,99.1,161.9,99.3,162.6,99.6z"/>
		<path fill="#898989" d="M166.9,99.2v0.4h-2.9v2.4h2.8v0.4h-2.8v2.5h2.9v0.4h-3.4v-6.1H166.9z"/>
		<path fill="#898989" d="M173.4,99.2v6.1H173l-4.6-5.3v5.3h-0.5v-6.1h0.4l4.6,5.3v-5.3H173.4z"/>
		<path fill="#898989" d="M179.2,99.2v0.4h-2.3v5.7h-0.5v-5.7h-2.3v-0.4H179.2z"/>
		<path fill="#898989" d="M183.3,99.2v0.4h-2.9v2.4h2.8v0.4h-2.8v2.5h2.9v0.4H180v-6.1H183.3z"/>
		<path fill="#898989" d="M184.3,99.2h1.6c0.7,0,1.2,0.1,1.5,0.4c0.3,0.3,0.5,0.7,0.5,1.1c0,0.7-0.4,1.2-1.2,1.5
			c0.2,0.1,0.5,0.4,0.8,0.9l1.4,2.1h-0.6l-1.1-1.7c-0.4-0.6-0.6-0.9-0.8-1c-0.2-0.1-0.5-0.2-0.9-0.2h-0.8v2.9h-0.5V99.2z
			 M184.8,99.6v2.4h1c0.5,0,0.9-0.1,1.2-0.3c0.3-0.2,0.4-0.5,0.4-0.9c0-0.4-0.1-0.7-0.4-0.9s-0.7-0.3-1.2-0.3H184.8z"/>
	</g>
</g>
<g>
	<polygon fill="#F39800" points="113,29.5 118.8,37.7 136.8,11.9 125.2,11.9 	"/>
	<polygon fill="#595757" points="70.9,66.4 81.3,66.4 81.3,18.1 70.9,28.5 	"/>
	<polygon fill="#595757" points="80.6,16.4 70.9,12.3 70.3,12.1 70.1,12.3 69.2,13.1 51.7,30.7 59,38 69.2,27.8 70.1,26.9 
		70.9,26.1 	"/>
	<polygon fill="#595757" points="49.9,31.3 49.3,30.7 31.7,13.1 31.7,27.8 42,38 42.3,38.4 42.8,38.4 44,38.4 56.9,38.4 50.5,31.9 	
		"/>
	<polygon fill="#595757" points="19.7,16.6 19.7,16.9 19.7,18.1 19.7,66.4 30,66.4 30,28.5 30,27.3 30,26.1 30,12.3 27.8,13.3 	"/>
	<polygon fill="#595757" points="105.6,38.4 105.7,38.4 106.8,38.4 117.1,38.4 111.9,30.9 111.4,30.2 110.9,29.5 98.7,11.9 
		87.1,11.9 105.1,37.7 	"/>
	<polygon fill="#595757" points="87.1,66.5 98.7,66.5 110.9,49 105.1,40.7 	"/>
	<polygon fill="#595757" points="152.3,66.5 184.7,66.5 188.9,56.1 152.3,56.1 152.3,56.1 152.3,66.5 	"/>
	<polygon fill="#595757" points="151.8,11.9 141.4,22.3 188.9,22.3 184.7,11.9 	"/>
	<polygon fill="#595757" points="118.3,40.1 106.8,40.1 111.9,47.5 112.5,48.2 113,49 125.2,66.5 136.8,66.5 	"/>
	<polygon fill="#595757" points="140.2,23.9 140.2,55 150.6,65.3 150.6,54.5 150.6,23.9 	"/>
</g>
</svg>
