<?xml version="1.0" encoding="utf-8"?>
<!DOCTYPE svg PUBLIC "-//W3C//DTD SVG 1.1//EN" "http://www.w3.org/Graphics/SVG/1.1/DTD/svg11.dtd">
<svg version="1.1" id="图形" xmlns="http://www.w3.org/2000/svg" xmlns:xlink="http://www.w3.org/1999/xlink" x="0px" y="0px" width="1024px" height="1024px" viewBox="0 0 1024 1024" enable-background="new 0 0 1024 1024" xml:space="preserve">
  <path fill="#33475f" d="M95.4092 763.9324c-3.9168-0.0225-7.8264-1.535-10.8052-4.5322s-4.4667-6.9161-4.4646-10.8339l0.1382-318.4957c0.001-2.006 1.1889-3.9086 3.157-4.7258 1.9681-0.8172 4.1544-0.3154 5.5757 1.0998l107.6572 107.1892 144.341-143.7297c2.7771-2.7658 6.6079-4.4759 10.837-4.4759 4.2301 0 8.0599 1.7091 10.838 4.4759l97.9886 97.5647c2.7935 2.7812 4.523 6.6314 4.523 10.8841s-1.7285 8.1029-4.523 10.8841L316.4119 652.8735 421.0514 757.0604c1.4295 1.4234 1.9374 3.6198 1.1141 5.5962-0.8223 1.9763-2.7392 3.1642-4.7565 3.1519L95.4092 763.9324zM95.531-129.9407c-3.9373-0.0082-7.8776 1.4879-10.8841 4.4902-3.0075 3.0013-4.5097 6.9386-4.5087 10.8769l0.1382 321.1756c0.001 2.006 1.1889 3.9086 3.157 4.7258 1.9681 0.8172 4.1544 0.3154 5.5757-1.1008l107.6562-107.2005 144.34 143.742c2.7771 2.7658 6.6079 4.4759 10.838 4.4759s8.0609-1.7101 10.838-4.4759l97.9896-97.5759c2.7935-2.7822 4.522-6.6314 4.522-10.8851 0-4.2527-1.7285-8.1029-4.522-10.8841L316.4119-16.2143l104.7398-104.2852c1.4234-1.4182 1.9343-3.6055 1.1223-5.5777-0.812-1.9722-2.7146-3.1662-4.7237-3.1713L95.531-129.9407zM960.7096 763.9324c3.9168-0.0225 7.8264-1.535 10.8052-4.5322 2.9798-2.9983 4.4667-6.9171 4.4646-10.8339l-0.1382-318.4957c-0.001-2.006-1.1878-3.9086-3.156-4.7258-1.9681-0.8172-4.1544-0.3154-5.5757 1.0998L859.4534 533.6338 715.0991 389.9031c-2.7781-2.7658-6.6079-4.4759-10.838-4.4759s-8.0599 1.7101-10.838 4.4759l-97.9763 97.5636c-2.7945 2.7812-4.522 6.6314-4.522 10.8841 0 4.2527 1.7285 8.1029 4.522 10.8841L739.7069 652.8735 635.0674 757.0604c-1.4295 1.4234-1.9374 3.6198-1.1141 5.5962 0.8233 1.9763 2.7402 3.1642 4.7575 3.1519L960.7096 763.9324zM960.5868-129.9407c3.9383-0.0082 7.8776 1.4879 10.8851 4.4902 3.0075 3.0013 4.5097 6.9386 4.5076 10.8769l-0.1382 321.1756c-0.001 2.007-1.1878 3.9086-3.156 4.7258-1.9681 0.8182-4.1544 0.3164-5.5757-1.0998L859.4534 103.0264 715.1002 246.7684c-2.7781 2.7658-6.6089 4.4759-10.839 4.4759s-8.0599-1.7101-10.838-4.4769l-97.9784-97.5749c-2.7935-2.7822-4.521-6.6314-4.521-10.8851 0-4.2527 1.7285-8.1019 4.523-10.8831L739.7069-16.2143 634.9681-120.4995c-1.4244-1.4182-1.9354-3.6055-1.1223-5.5777 0.812-1.9722 2.7136-3.1662 4.7227-3.1713L960.5868-129.9407z" transform="translate(0, 812) scale(1, -1)"/>
</svg>
