<svg xmlns="http://www.w3.org/2000/svg" xmlns:xlink="http://www.w3.org/1999/xlink" preserveAspectRatio="xMidYMid" width="79" height="78" viewBox="0 0 79 78">
  <defs>
    <style>

      .cls-2 {
        fill: #959595;
      }
    </style>
  </defs>
  <path d="M38.986,78.011 C17.447,78.011 -0.014,60.550 -0.014,39.011 C-0.014,17.472 17.447,0.011 38.986,0.011 C60.525,0.011 77.986,17.472 77.986,39.011 C77.986,60.550 60.525,78.011 38.986,78.011 ZM38.986,3.402 C19.320,3.402 3.378,19.345 3.378,39.011 C3.378,58.677 19.320,74.619 38.986,74.619 C58.652,74.619 74.595,58.677 74.595,39.011 C74.595,19.345 58.652,3.402 38.986,3.402 ZM58.503,40.757 C58.503,40.757 40.699,40.757 40.699,40.757 C40.699,40.757 40.699,58.561 40.699,58.561 C40.699,59.029 40.319,59.409 39.851,59.409 C39.851,59.409 38.155,59.409 38.155,59.409 C37.687,59.409 37.307,59.029 37.307,58.561 C37.307,58.561 37.307,40.757 37.307,40.757 C37.307,40.757 19.503,40.756 19.503,40.756 C19.035,40.756 18.655,40.377 18.655,39.909 C18.655,39.909 18.655,38.213 18.655,38.213 C18.655,37.745 19.035,37.365 19.503,37.365 C19.503,37.365 37.307,37.365 37.307,37.365 C37.307,37.365 37.307,19.561 37.307,19.561 C37.307,19.093 37.687,18.713 38.155,18.713 C38.155,18.713 39.851,18.713 39.851,18.713 C40.319,18.713 40.699,19.093 40.699,19.561 C40.699,19.561 40.699,37.365 40.699,37.365 C40.699,37.365 58.503,37.365 58.503,37.365 C58.971,37.365 59.351,37.745 59.351,38.213 C59.351,38.213 59.351,39.909 59.351,39.909 C59.351,40.377 58.971,40.757 58.503,40.757 Z" id="path-1" class="cls-2" fill-rule="evenodd"/>
</svg>
