<svg xmlns="http://www.w3.org/2000/svg" xmlns:xlink="http://www.w3.org/1999/xlink" preserveAspectRatio="xMidYMid" width="27" height="19" viewBox="0 0 27 19">
  <defs>
    <style>

      .cls-2 {
        fill: #ffffff;
        filter: url(#color-overlay-1);
      }
    </style>

    <filter id="color-overlay-1" filterUnits="userSpaceOnUse">
      <feFlood flood-color="#444444" flood-opacity="1"/>
      <feComposite operator="in" in2="SourceGraphic"/>
      <feBlend mode="normal" in2="SourceGraphic" result="colorOverlay"/>
    </filter>
  </defs>
  <path d="M23.413,18.967 C23.413,18.967 22.363,17.654 22.363,17.654 C24.318,15.497 25.556,12.626 25.556,9.473 C25.556,6.316 24.314,3.441 22.354,1.283 C22.354,1.283 23.405,-0.004 23.405,-0.004 C25.631,2.533 27.002,5.809 27.002,9.473 C27.002,13.146 25.648,16.428 23.413,18.967 ZM20.568,16.351 C20.568,16.351 19.596,15.049 19.596,15.049 C21.035,13.635 21.952,11.659 21.952,9.473 C21.952,7.329 21.070,5.388 19.680,3.981 C19.680,3.981 20.617,2.624 20.617,2.624 C22.299,4.406 23.355,6.818 23.355,9.473 C23.355,12.177 22.306,14.560 20.568,16.351 ZM17.906,13.528 C17.906,13.528 17.185,12.229 17.185,12.229 C18.028,11.618 18.281,10.597 18.281,9.470 C18.281,8.447 17.829,7.530 17.114,6.913 C17.114,6.913 17.861,5.376 17.861,5.376 C18.990,6.374 19.703,7.839 19.703,9.472 C19.703,11.083 19.009,12.531 17.906,13.528 ZM13.085,19.000 C13.085,19.000 6.761,14.556 6.761,14.556 C6.761,14.556 6.761,4.473 6.761,4.473 C6.761,4.473 13.085,0.077 13.085,0.077 C13.919,0.077 15.113,0.713 15.113,1.497 C15.113,1.497 15.113,17.579 15.113,17.579 C15.113,18.364 13.919,19.000 13.085,19.000 ZM-0.000,12.616 C-0.000,12.616 -0.000,6.460 -0.000,6.460 C-0.000,5.675 0.676,4.561 1.510,4.561 C1.510,4.561 6.057,4.561 6.057,4.561 C6.057,4.561 6.057,14.407 6.057,14.407 C6.057,14.407 1.510,14.407 1.510,14.407 C0.676,14.407 -0.000,13.401 -0.000,12.616 Z" id="path-1" class="cls-2" fill-rule="evenodd"/>
</svg>
