<svg xmlns="http://www.w3.org/2000/svg" xmlns:xlink="http://www.w3.org/1999/xlink" preserveAspectRatio="xMidYMid" width="20" height="18" viewBox="0 0 20 18">
  <defs>
    <style>

      .cls-2 {
        fill: #ffffff;
        filter: url(#color-overlay-1);
      }
    </style>

    <filter id="color-overlay-1" filterUnits="userSpaceOnUse">
      <feFlood flood-color="#444444" flood-opacity="1"/>
      <feComposite operator="in" in2="SourceGraphic"/>
      <feBlend mode="normal" in2="SourceGraphic" result="colorOverlay"/>
    </filter>
  </defs>
  <path d="M18.288,12.201 C18.288,12.201 17.605,15.849 17.605,15.849 C17.605,15.849 2.385,15.849 2.385,15.849 C2.385,15.849 1.701,12.201 1.701,12.201 C1.701,12.201 -0.000,12.201 -0.000,12.201 C-0.000,12.201 -0.000,18.000 -0.000,18.000 C-0.000,18.000 19.990,18.000 19.990,18.000 C19.990,18.000 19.990,12.201 19.990,12.201 C19.990,12.201 18.288,12.201 18.288,12.201 ZM18.013,8.251 C18.013,8.251 12.894,8.251 12.894,8.251 C12.894,8.251 12.894,10.368 12.894,10.368 C12.894,10.368 7.064,10.368 7.064,10.368 C7.064,10.368 7.064,8.251 7.064,8.251 C7.064,8.251 1.993,8.251 1.993,8.251 C1.993,8.251 9.952,0.009 9.952,0.009 C9.952,0.009 18.013,8.251 18.013,8.251 ZM12.894,14.004 C12.894,14.004 7.064,14.004 7.064,14.004 C7.064,14.004 7.064,13.234 7.064,13.234 C7.064,13.234 12.894,13.234 12.894,13.234 C12.894,13.234 12.894,14.004 12.894,14.004 ZM12.894,12.565 C12.894,12.565 7.064,12.565 7.064,12.565 C7.064,12.565 7.064,11.093 7.064,11.093 C7.064,11.093 12.894,11.093 12.894,11.093 C12.894,11.093 12.894,12.565 12.894,12.565 Z" id="path-1" class="cls-2" fill-rule="evenodd"/>
</svg>
